<mxfile host="app.diagrams.net" modified="2023-01-23T04:43:53.436Z" agent="5.0 (Windows NT 10.0; Win64; x64) AppleWebKit/537.36 (KHTML, like Gecko) Chrome/109.0.0.0 Safari/537.36" etag="fZaZOgwPqrNy0_GNN-ZY" version="20.8.10" type="github">
  <diagram name="Page-1" id="AvuTZ2LysB4CJ1qrYQsH">
    <mxGraphModel dx="1120" dy="-656" grid="1" gridSize="10" guides="1" tooltips="1" connect="1" arrows="1" fold="1" page="1" pageScale="1" pageWidth="850" pageHeight="1100" math="0" shadow="0">
      <root>
        <mxCell id="0" />
        <mxCell id="1" parent="0" />
        <mxCell id="zna02HgkzmQcl8DzhKu5-1" value="TESTS" style="text;strokeColor=none;fillColor=none;html=1;fontSize=24;fontStyle=1;verticalAlign=middle;align=center;" vertex="1" parent="1">
          <mxGeometry x="560" y="1760" width="180" height="40" as="geometry" />
        </mxCell>
        <mxCell id="zna02HgkzmQcl8DzhKu5-2" value="" style="group" vertex="1" connectable="0" parent="1">
          <mxGeometry x="560" y="1800" width="620" height="60" as="geometry" />
        </mxCell>
        <mxCell id="zna02HgkzmQcl8DzhKu5-3" value="TEST_NO" style="rounded=0;whiteSpace=wrap;html=1;container=0;" vertex="1" parent="zna02HgkzmQcl8DzhKu5-2">
          <mxGeometry width="309.99999999999994" height="60" as="geometry" />
        </mxCell>
        <mxCell id="zna02HgkzmQcl8DzhKu5-4" value="TEST_TYPE" style="rounded=0;whiteSpace=wrap;html=1;container=0;" vertex="1" parent="zna02HgkzmQcl8DzhKu5-2">
          <mxGeometry x="310" width="309.99999999999994" height="60" as="geometry" />
        </mxCell>
        <mxCell id="zna02HgkzmQcl8DzhKu5-5" value="PATIENT" style="text;strokeColor=none;fillColor=none;html=1;fontSize=24;fontStyle=1;verticalAlign=middle;align=center;" vertex="1" parent="1">
          <mxGeometry x="590" y="1120" width="100" height="40" as="geometry" />
        </mxCell>
        <mxCell id="zna02HgkzmQcl8DzhKu5-6" value="DOCTOR" style="text;strokeColor=none;fillColor=none;html=1;fontSize=24;fontStyle=1;verticalAlign=middle;align=center;" vertex="1" parent="1">
          <mxGeometry x="589" y="1240" width="100" height="40" as="geometry" />
        </mxCell>
        <mxCell id="zna02HgkzmQcl8DzhKu5-7" value="WARD" style="text;strokeColor=none;fillColor=none;html=1;fontSize=24;fontStyle=1;verticalAlign=middle;align=center;" vertex="1" parent="1">
          <mxGeometry x="589" y="1360" width="100" height="40" as="geometry" />
        </mxCell>
        <mxCell id="zna02HgkzmQcl8DzhKu5-8" value="ACOUNTANT" style="text;strokeColor=none;fillColor=none;html=1;fontSize=24;fontStyle=1;verticalAlign=middle;align=center;" vertex="1" parent="1">
          <mxGeometry x="580" y="1510" width="180" height="40" as="geometry" />
        </mxCell>
        <mxCell id="zna02HgkzmQcl8DzhKu5-9" value="" style="group" vertex="1" connectable="0" parent="1">
          <mxGeometry x="580" y="1150" width="600" height="60" as="geometry" />
        </mxCell>
        <mxCell id="zna02HgkzmQcl8DzhKu5-10" value="NAME" style="rounded=0;whiteSpace=wrap;html=1;" vertex="1" parent="zna02HgkzmQcl8DzhKu5-9">
          <mxGeometry width="120" height="60" as="geometry" />
        </mxCell>
        <mxCell id="zna02HgkzmQcl8DzhKu5-11" value="ID" style="rounded=0;whiteSpace=wrap;html=1;" vertex="1" parent="zna02HgkzmQcl8DzhKu5-9">
          <mxGeometry x="120" width="120" height="60" as="geometry" />
        </mxCell>
        <mxCell id="zna02HgkzmQcl8DzhKu5-12" value="ADDRESS" style="rounded=0;whiteSpace=wrap;html=1;" vertex="1" parent="zna02HgkzmQcl8DzhKu5-9">
          <mxGeometry x="240" width="120" height="60" as="geometry" />
        </mxCell>
        <mxCell id="zna02HgkzmQcl8DzhKu5-13" value="DATE_ADMITTED" style="rounded=0;whiteSpace=wrap;html=1;" vertex="1" parent="zna02HgkzmQcl8DzhKu5-9">
          <mxGeometry x="360" width="120" height="60" as="geometry" />
        </mxCell>
        <mxCell id="zna02HgkzmQcl8DzhKu5-14" value="DATE_DISCHARGE" style="rounded=0;whiteSpace=wrap;html=1;" vertex="1" parent="zna02HgkzmQcl8DzhKu5-9">
          <mxGeometry x="480" width="120" height="60" as="geometry" />
        </mxCell>
        <mxCell id="zna02HgkzmQcl8DzhKu5-15" value="" style="group" vertex="1" connectable="0" parent="1">
          <mxGeometry x="580" y="1290" width="600" height="60" as="geometry" />
        </mxCell>
        <mxCell id="zna02HgkzmQcl8DzhKu5-16" value="DOC_ID" style="rounded=0;whiteSpace=wrap;html=1;" vertex="1" parent="zna02HgkzmQcl8DzhKu5-15">
          <mxGeometry width="200" height="60" as="geometry" />
        </mxCell>
        <mxCell id="zna02HgkzmQcl8DzhKu5-17" value="DOC_NAME" style="rounded=0;whiteSpace=wrap;html=1;" vertex="1" parent="zna02HgkzmQcl8DzhKu5-15">
          <mxGeometry x="200" width="200" height="60" as="geometry" />
        </mxCell>
        <mxCell id="zna02HgkzmQcl8DzhKu5-18" value="QUALIFICATION" style="rounded=0;whiteSpace=wrap;html=1;" vertex="1" parent="zna02HgkzmQcl8DzhKu5-15">
          <mxGeometry x="400" width="200" height="60" as="geometry" />
        </mxCell>
        <mxCell id="zna02HgkzmQcl8DzhKu5-19" value="" style="group" vertex="1" connectable="0" parent="1">
          <mxGeometry x="580" y="1400" width="600" height="60" as="geometry" />
        </mxCell>
        <mxCell id="zna02HgkzmQcl8DzhKu5-20" value="WARD_ID" style="rounded=0;whiteSpace=wrap;html=1;" vertex="1" parent="zna02HgkzmQcl8DzhKu5-19">
          <mxGeometry width="300" height="60" as="geometry" />
        </mxCell>
        <mxCell id="zna02HgkzmQcl8DzhKu5-21" value="WARD_TYPE" style="rounded=0;whiteSpace=wrap;html=1;" vertex="1" parent="zna02HgkzmQcl8DzhKu5-19">
          <mxGeometry x="300" width="300" height="60" as="geometry" />
        </mxCell>
        <mxCell id="zna02HgkzmQcl8DzhKu5-22" value="" style="group" vertex="1" connectable="0" parent="1">
          <mxGeometry x="580" y="1550" width="600" height="60" as="geometry" />
        </mxCell>
        <mxCell id="zna02HgkzmQcl8DzhKu5-23" value="ACC_NO" style="rounded=0;whiteSpace=wrap;html=1;" vertex="1" parent="zna02HgkzmQcl8DzhKu5-22">
          <mxGeometry width="300" height="60" as="geometry" />
        </mxCell>
        <mxCell id="zna02HgkzmQcl8DzhKu5-24" value="DESC" style="rounded=0;whiteSpace=wrap;html=1;" vertex="1" parent="zna02HgkzmQcl8DzhKu5-22">
          <mxGeometry x="300" width="300" height="60" as="geometry" />
        </mxCell>
        <mxCell id="zna02HgkzmQcl8DzhKu5-25" value="RECORD" style="text;strokeColor=none;fillColor=none;html=1;fontSize=24;fontStyle=1;verticalAlign=middle;align=center;" vertex="1" parent="1">
          <mxGeometry x="570" y="1640" width="180" height="40" as="geometry" />
        </mxCell>
        <mxCell id="zna02HgkzmQcl8DzhKu5-26" value="" style="group" vertex="1" connectable="0" parent="1">
          <mxGeometry x="570" y="1680" width="610" height="60" as="geometry" />
        </mxCell>
        <mxCell id="zna02HgkzmQcl8DzhKu5-27" value="RECORD_NO" style="rounded=0;whiteSpace=wrap;html=1;container=0;" vertex="1" parent="zna02HgkzmQcl8DzhKu5-26">
          <mxGeometry width="203.33333333333334" height="60" as="geometry" />
        </mxCell>
        <mxCell id="zna02HgkzmQcl8DzhKu5-28" value="APPOINTMENT" style="rounded=0;whiteSpace=wrap;html=1;container=0;" vertex="1" parent="zna02HgkzmQcl8DzhKu5-26">
          <mxGeometry x="203.33333333333334" width="203.33333333333334" height="60" as="geometry" />
        </mxCell>
        <mxCell id="zna02HgkzmQcl8DzhKu5-29" value="PATIENT_BILL" style="rounded=0;whiteSpace=wrap;html=1;container=0;" vertex="1" parent="zna02HgkzmQcl8DzhKu5-26">
          <mxGeometry x="406.6666666666667" width="203.33333333333334" height="60" as="geometry" />
        </mxCell>
        <mxCell id="zna02HgkzmQcl8DzhKu5-30" value="TESTS" style="text;strokeColor=none;fillColor=none;html=1;fontSize=24;fontStyle=1;verticalAlign=middle;align=center;" vertex="1" parent="1">
          <mxGeometry x="560" y="1760" width="180" height="40" as="geometry" />
        </mxCell>
        <mxCell id="zna02HgkzmQcl8DzhKu5-31" value="" style="group" vertex="1" connectable="0" parent="1">
          <mxGeometry x="560" y="1800" width="620" height="60" as="geometry" />
        </mxCell>
        <mxCell id="zna02HgkzmQcl8DzhKu5-32" value="TEST_NO" style="rounded=0;whiteSpace=wrap;html=1;container=0;" vertex="1" parent="zna02HgkzmQcl8DzhKu5-31">
          <mxGeometry width="309.99999999999994" height="60" as="geometry" />
        </mxCell>
        <mxCell id="zna02HgkzmQcl8DzhKu5-33" value="TEST_TYPE" style="rounded=0;whiteSpace=wrap;html=1;container=0;" vertex="1" parent="zna02HgkzmQcl8DzhKu5-31">
          <mxGeometry x="310" width="309.99999999999994" height="60" as="geometry" />
        </mxCell>
        <mxCell id="zna02HgkzmQcl8DzhKu5-34" value="ASSISTANTS" style="text;strokeColor=none;fillColor=none;html=1;fontSize=24;fontStyle=1;verticalAlign=middle;align=center;" vertex="1" parent="1">
          <mxGeometry x="550" y="1890" width="180" height="40" as="geometry" />
        </mxCell>
        <mxCell id="zna02HgkzmQcl8DzhKu5-35" value="" style="group" vertex="1" connectable="0" parent="1">
          <mxGeometry x="550" y="1930" width="620" height="60" as="geometry" />
        </mxCell>
        <mxCell id="zna02HgkzmQcl8DzhKu5-36" value="BATCH_NO" style="rounded=0;whiteSpace=wrap;html=1;container=0;" vertex="1" parent="zna02HgkzmQcl8DzhKu5-35">
          <mxGeometry width="309.99999999999994" height="60" as="geometry" />
        </mxCell>
        <mxCell id="zna02HgkzmQcl8DzhKu5-37" value="WARD_NO" style="rounded=0;whiteSpace=wrap;html=1;container=0;" vertex="1" parent="zna02HgkzmQcl8DzhKu5-35">
          <mxGeometry x="310" width="309.99999999999994" height="60" as="geometry" />
        </mxCell>
      </root>
    </mxGraphModel>
  </diagram>
</mxfile>
